<?xml version="1.0" standalone="yes"?>
<svg xmlns="http://www.w3.org/2000/svg" width="640" height="360">
<path style="fill:#040406; stroke:none;" d="M0 0L0 360L640 360L640 0L0 0z"/>
<path style="fill:#323e47; stroke:none;" d="M240 76L234 78L235 80C229.897 82.0523 226.171 85.9713 224 91L222 90C213.165 104.019 203.381 116.352 197.09 132C183.66 165.402 186.339 205.871 201.784 238C245.22 328.359 376.042 335.33 430.305 252C472.619 187.019 451.268 100.405 384 62.4244C351.14 43.8708 309.115 41.6963 274 54.6813C262.947 58.7686 246.269 65.4509 240 76z"/>
<path style="fill:#040406; stroke:none;" d="M426 250C427.823 237.554 439.607 224.629 443.492 212C453.054 180.914 446.683 143.906 430.905 116C381.509 28.6339 250.858 33.5286 207.36 123C165.325 209.46 232.715 309.133 328 304.961C356.984 303.691 384.524 290.713 405.999 271.715C413.389 265.177 418.351 256.181 426 250z"/>
<path style="fill:#323e47; stroke:none;" d="M308 56.4283C283.183 59.9818 260.461 68.0483 241.015 84.2608C185.416 130.614 181.826 218.488 234.004 268.961C249.524 283.974 268.342 293.766 289 299.424C303.323 303.346 320.211 304.807 335 302.7C396.722 293.905 443.971 241.952 443.971 179C443.971 109.591 378.821 46.2873 308 56.4283z"/>
<path style="fill:#4b5271; stroke:none;" d="M384 67L385 68L384 67z"/>
<path style="fill:#040406; stroke:none;" d="M212 194L213 194C213 154.669 222.668 118.511 256 93.7608C320.267 46.0394 418.709 86.7842 426.829 168C428.859 188.299 425.164 209.728 416.04 228C412.351 235.389 406.661 241.608 403 249C411.713 241.804 417.137 230.225 421.424 220C438.026 180.406 428.384 134.002 398.911 103.015C348.782 50.3098 258.805 63.6921 224.692 127C213.138 148.442 212 170.204 212 194M307 76.4283C291.789 78.6064 277.984 83.3194 265 91.5872C253.25 99.0691 242.174 109.048 234.826 120.999C222.857 140.464 215.51 162.933 217.09 186C221.183 245.781 275.77 290.112 335 281.715C349.568 279.649 363.529 274.598 376 266.771C452.045 219.042 431.551 96.9324 343 78.2107C331.535 75.7867 318.654 74.7595 307 76.4283z"/>
<path style="fill:#4b5271; stroke:none;" d="M387 90L388 91L387 90M390 93L391 94L390 93M418 95L419 96L418 95z"/>
<path style="fill:#323e47; stroke:none;" d="M323 98L302 104L301 104L300 102L297 102L291 106L290 106L289 104L280 107C275.2 130.37 278.432 148.788 287 171L288 171L280 137L282 125L282 122L286 121L293 123L297 125L297 128C302.147 127.627 304.164 131.211 304 136L305 136L316.719 111L323 98z"/>
<path style="fill:#4b5271; stroke:none;" d="M397 99L398 100L397 99z"/>
<path style="fill:#040406; stroke:none;" d="M303 103L304 104L303 103M306 103L307 104L306 103z"/>
<path style="fill:#4b5271; stroke:none;" d="M402 104L404 106L402 104z"/>
<path style="fill:#323e47; stroke:none;" d="M268 105L269 106L268 105M270 105L271 106L270 105M302 149L301 147L300 147L301 152L298 161L299 161C301.019 152.277 307.573 131.816 317.171 128.818C322.782 127.065 333.23 131.807 339 133L339 134L324 143L324 144C340.094 136.028 355.025 124.841 373 121C364.236 112.389 341.35 101.307 329 107.318C316.193 113.551 305.164 135.681 302 149M266 107L267 108L266 107M268 107L267 110L265 112L259 112L260 114L254 115L245.018 129.004L242 149L245 149L243 151L243 152C251.717 165.802 262.615 176.407 276 185.833C278.707 187.739 288.305 191.707 286 195L294 196L300 200C297.192 195.714 291.298 193.851 287 191.186C277.328 185.189 259.702 172.491 259 160C255.031 160.794 254.702 148.175 258 149L257 144L262 132L264 128L265 128L266 130L269 128L269 126L272 128L273 128L271 107L268 107z"/>
<path style="fill:#040406; stroke:none;" d="M279 112L280 113L279 112z"/>
<path style="fill:#4b5271; stroke:none;" d="M412 116L413 117L412 116M283 121L284 122L283 121M285 121L282 122L281 123L282 125C278.829 125.527 279.999 134 280 137C280.005 150.525 285.229 163.554 290 176L291 176C288.396 164.752 282.048 154.755 285 143L288 145L289 142L294 147L297 145L300 151L298 146L301 147C302.155 141.418 308.758 125.674 297 128L296 127L297 125L293 123L285 121M289 122L290 123L289 122M416 123L417 124L416 123M270 125L271 126L270 125M269 126L269 128L267 127L266 130L265 128L264 128L262 132L257 144L258 149C254.352 149.608 255.293 159.447 259 160C257.413 173.78 282.383 190.037 293 195L289 188L286 189L286 186L282 187L282 186L287 185C285.977 181.836 283.156 176.675 288 176L280 162L272 126L269 126z"/>
<path style="fill:#323e47; stroke:none;" d="M294 126L295 127L294 126z"/>
<path style="fill:#4b5271; stroke:none;" d="M297 126L298 127L297 126M319.333 126.667L319.667 127.333L319.333 126.667z"/>
<path style="fill:#040406; stroke:none;" d="M246 127L247 128L246 127z"/>
<path style="fill:#4b5271; stroke:none;" d="M303 128L303 129L306 131L307 128L303 128M301 154L302 154L308 147L307 144L308 144L313 152L339 134C319.438 120.044 306.399 135.122 301 154M338 130L341 133L338 130z"/>
<path style="fill:#323e47; stroke:none;" d="M320 146L319 150L352 137L360 152L365 153L366 156L366 157L357 156L357 157L368 157C372.918 163.087 392.254 166.786 400 169L400 163C391.31 154.717 390.348 140.272 379.946 132.513C362.004 119.13 336.955 144.671 320 146M273 131L273 134L274 134L273 131z"/>
<path style="fill:#4b5271; stroke:none;" d="M261 133L262 134L261 133z"/>
<path style="fill:#323e47; stroke:none;" d="M274 136L274 139L275 139L274 136M303.333 137.667L303.667 138.333L303.333 137.667z"/>
<path style="fill:#4b5271; stroke:none;" d="M317 151L317 152L333 147L331 150L336 151L337 152L337 153L366 157L366 156L365 153L360 152L352 137C339.048 139.44 328.247 144.115 317 151z"/>
<path style="fill:#323e47; stroke:none;" d="M302 140L302 143L303 143L302 140z"/>
<path style="fill:#4b5271; stroke:none;" d="M258 141L259 142L258 141z"/>
<path style="fill:#323e47; stroke:none;" d="M275 141L276 142L275 141z"/>
<path style="fill:#7f6fa7; stroke:none;" d="M289 142L288 145L285 143L285 146C281.34 147.491 284.009 151.845 284.667 155C286.249 162.596 287.791 169.343 294 174L299 151C295.961 151 296.518 148.507 297 146L294 148L294 144L289 142z"/>
<path style="fill:#323e47; stroke:none;" d="M241 143L242 144L241 143z"/>
<path style="fill:#7f6fa7; stroke:none;" d="M287 143L288 144L287 143z"/>
<path style="fill:#527379; stroke:none;" d="M309 143L313 150L317 144L309 143z"/>
<path style="fill:#7f6fa7; stroke:none;" d="M295 144L296 145L295 144z"/>
<path style="fill:#527379; stroke:none;" d="M297 144L298 145L297 144z"/>
<path style="fill:#323e47; stroke:none;" d="M301.333 144.667L301.667 145.333L301.333 144.667z"/>
<path style="fill:#527379; stroke:none;" d="M307 144L308 147L302 153L310 154L311 154C313.002 149.406 310.35 147.162 307 144z"/>
<path style="fill:#323e47; stroke:none;" d="M322 144L323 145L322 144M242 145L243 146L242 145M276.333 145.667L276.667 146.333L276.333 145.667z"/>
<path style="fill:#4b5271; stroke:none;" d="M292 145L293 146L292 145z"/>
<path style="fill:#527379; stroke:none;" d="M294 145L295 146L294 145M296 145L297 146L296 145z"/>
<path style="fill:#4b5271; stroke:none;" d="M312 145L313 146L312 145M315 145L316 146L315 145z"/>
<path style="fill:#527379; stroke:none;" d="M319 145L320 146L319 145z"/>
<path style="fill:#323e47; stroke:none;" d="M321 145L322 146L321 145z"/>
<path style="fill:#4b5271; stroke:none;" d="M256 146L257 147L256 146z"/>
<path style="fill:#527379; stroke:none;" d="M295 146L296 147L295 146M298 146L300 149L298 146M313 154L313 155L341 154L341 153L337 153L337 152L339 151L336 151C336.019 148.244 333.244 149.221 331 150L333 147C326.134 145.341 318.932 150.879 313 154z"/>
<path style="fill:#040406; stroke:none;" d="M244 147L243 149L244 147z"/>
<path style="fill:#527379; stroke:none;" d="M294 147L295 148L294 147M296 147L297 148L296 147z"/>
<path style="fill:#4b5271; stroke:none;" d="M313 147L314 148L313 147z"/>
<path style="fill:#323e47; stroke:none;" d="M318 147L305 160L318 151L318 147z"/>
<path style="fill:#040406; stroke:none;" d="M317 150L321 147L317 150z"/>
<path style="fill:#323e47; stroke:none;" d="M277.333 148.667L277.667 149.333L277.333 148.667z"/>
<path style="fill:#527379; stroke:none;" d="M295 148L296 149L295 148M333 148L334 149L333 148M296 149L298 152L296 149z"/>
<path style="fill:#040406; stroke:none;" d="M300 149L300 152L301 152L300 149z"/>
<path style="fill:#4b5271; stroke:none;" d="M310 149L311 150L310 149M329 149L330 150L329 149z"/>
<path style="fill:#323e47; stroke:none;" d="M257 150L258 151L257 150z"/>
<path style="fill:#527379; stroke:none;" d="M295 150L296 151L295 150z"/>
<path style="fill:#040406; stroke:none;" d="M316 150L317 151L316 150z"/>
<path style="fill:#323e47; stroke:none;" d="M231 151L232 152L231 151z"/>
<path style="fill:#7f6fa7; stroke:none;" d="M305 151L306 152L305 151z"/>
<path style="fill:#4b5271; stroke:none;" d="M327 151L328 152L327 151M298 152L298 156L299 156L298 152z"/>
<path style="fill:#7f6fa7; stroke:none;" d="M298 166L310 153C301.204 151.442 298.684 158.214 298 166z"/>
<path style="fill:#4b5271; stroke:none;" d="M315 152L316 153L315 152M313.667 153.333L314.333 153.667L313.667 153.333M331 153L331 154L334 154L331 153M335 153L336 154L335 153z"/>
<path style="fill:#323e47; stroke:none;" d="M360.667 153.333L361.333 153.667L360.667 153.333M279.333 154.667L279.667 155.333L279.333 154.667z"/>
<path style="fill:#4b5271; stroke:none;" d="M309 154L310 155L309 154M312.333 154.667L312.667 155.333L312.333 154.667M316 154L316 155L322 155L316 154z"/>
<path style="fill:#323e47; stroke:none;" d="M322 154L322 155L344 155L322 154z"/>
<path style="fill:#4b5271; stroke:none;" d="M300.333 155.667L300.667 156.333L300.333 155.667M308 155L309 156L308 155z"/>
<path style="fill:#323e47; stroke:none;" d="M313 155L313 156L317 156L313 155z"/>
<path style="fill:#040406; stroke:none;" d="M332 194L338 186L340 192L342 192C344.367 185.898 346.05 181.55 344.255 175C342.947 170.23 341.833 165.426 337.891 162.156C334.305 159.181 329.729 155.738 325 155.133C295.603 151.376 282.094 195.07 312 203.572C318.701 205.477 323.601 205.691 329.996 202.691C334.834 200.421 337.988 197.082 332 194z"/>
<path style="fill:#323e47; stroke:none;" d="M350 155L350 156L356 156L350 155M235 156C237.855 169.801 238.413 194.352 248.133 205.153C260.537 218.935 289.196 212.247 305 211L305 210C296.837 210.068 286.783 212.835 279.105 208.682C276.002 207.004 274.45 203.412 272 201C274.219 196.888 271.416 192.599 269 189L274 191L272 188L279 191L279 190L235 156z"/>
<path style="fill:#527379; stroke:none;" d="M307 156L308 157L307 156z"/>
<path style="fill:#4b5271; stroke:none;" d="M330 156L331 157L330 156z"/>
<path style="fill:#527379; stroke:none;" d="M331 156L331 157L356 175L353 172C353.107 166.932 350.182 161.842 346 159L347 161L346 161L345 158L331 156z"/>
<path style="fill:#4b5271; stroke:none;" d="M334 156L334 157L339 157L334 156z"/>
<path style="fill:#323e47; stroke:none;" d="M339 156L339 157C347.898 157.388 369.758 161.348 373 171L376 170C375.374 173.626 375.646 175.271 379 177C377.332 184.23 378.532 195.49 382 202L378 204L374 195L370 192L369 192L392 236C408.268 226.747 403.14 197.553 401 183C398.169 183 387.95 170.937 383.667 168.5C371.08 161.339 353.471 156 339 156M280.333 157.667L280.667 158.333L280.333 157.667z"/>
<path style="fill:#4b5271; stroke:none;" d="M306 157L307 158L306 157z"/>
<path style="fill:#323e47; stroke:none;" d="M331 157L332 158L331 157z"/>
<path style="fill:#4b5271; stroke:none;" d="M340 157L340 158L345 158L340 157M367 157L368 158L367 157M299 158L300 159L299 158M305 158L306 159L305 158z"/>
<path style="fill:#323e47; stroke:none;" d="M332 158L333 159L332 158z"/>
<path style="fill:#4b5271; stroke:none;" d="M333 158L334 159L333 158M344 159L344 160L347 161L346 159L353 172L356 175L349 170C350.925 172.702 364.243 187.171 365 183L368 187L366 186C366.997 190.319 369.496 194.219 374 195L373 198L378 204L382 202C379.067 194.776 377.987 184.774 379 177L376 170L373 171C371.33 162.566 351.472 157.113 344 159M297 159L299 162L297 159z"/>
<path style="fill:#323e47; stroke:none;" d="M334 159L335 160L334 159M281.333 160.667L281.667 161.333L281.333 160.667M335 160L336 161L335 160z"/>
<path style="fill:#4b5271; stroke:none;" d="M336 160L337 161L336 160z"/>
<path style="fill:#527379; stroke:none;" d="M280 161L281 162L280 161z"/>
<path style="fill:#323e47; stroke:none;" d="M303 161L304 162L303 161z"/>
<path style="fill:#4b5271; stroke:none;" d="M337 161L338 162L337 161z"/>
<path style="fill:#527379; stroke:none;" d="M351 161L352 162L351 161z"/>
<path style="fill:#323e47; stroke:none;" d="M282.333 162.667L282.667 163.333L282.333 162.667M297 162L297 165L298 165L297 162z"/>
<path style="fill:#4b5271; stroke:none;" d="M302 162L303 163L302 162z"/>
<path style="fill:#323e47; stroke:none;" d="M338 162L340 164L338 162z"/>
<path style="fill:#4b5271; stroke:none;" d="M339 162L340 163L339 162M301 163L302 164L301 163M340 163L341 164L340 163z"/>
<path style="fill:#527379; stroke:none;" d="M287.333 164.667L287.667 165.333L287.333 164.667z"/>
<path style="fill:#4b5271; stroke:none;" d="M296 164L296 168L297 168L296 164M300 164L301 165L300 164M341 164L342 165L341 164z"/>
<path style="fill:#527379; stroke:none;" d="M280.333 165.667L280.667 166.333L280.333 165.667z"/>
<path style="fill:#323e47; stroke:none;" d="M283.333 165.667L283.667 166.333L283.333 165.667M299 165L300 166L299 165M341 165L342 170L343 170L344 168L355 179L354 174L341 165z"/>
<path style="fill:#4b5271; stroke:none;" d="M343 165L344 166L343 165z"/>
<path style="fill:#323e47; stroke:none;" d="M298 166L299 167L298 166z"/>
<path style="fill:#4b5271; stroke:none;" d="M344 166L345 167L344 166M348.667 166.333L349.333 166.667L348.667 166.333z"/>
<path style="fill:#040406; stroke:none;" d="M240 167L241 168L240 167z"/>
<path style="fill:#323e47; stroke:none;" d="M297 167L298 168L297 167z"/>
<path style="fill:#4b5271; stroke:none;" d="M345 167L346 168L345 167z"/>
<path style="fill:#323e47; stroke:none;" d="M284 168L285 169L284 168M296.333 168.667L296.667 169.333L296.333 168.667z"/>
<path style="fill:#527379; stroke:none;" d="M343 168L344 169L343 168z"/>
<path style="fill:#040406; stroke:none;" d="M239 169L240 170L239 169z"/>
<path style="fill:#527379; stroke:none;" d="M289.333 169.667L289.667 170.333L289.333 169.667z"/>
<path style="fill:#4b5271; stroke:none;" d="M343 169L343 170L343 171L346 171L346 170L343 169M350 169L351 170L350 169z"/>
<path style="fill:#323e47; stroke:none;" d="M285 170L286 171L285 170z"/>
<path style="fill:#527379; stroke:none;" d="M295 170L296 171L295 170M344 170L349.83 204L351 227L352 227L352 223L354 226L357 226L357 223C359.963 223.921 362.561 224.491 363 221L366 217L367 217L367 219L368 219L371 216C372.026 200.299 357.25 178.048 344 170z"/>
<path style="fill:#040406; stroke:none;" d="M347 170L353 176L347 170z"/>
<path style="fill:#4b5271; stroke:none;" d="M295.333 171.667L295.667 172.333L295.333 171.667z"/>
<path style="fill:#323e47; stroke:none;" d="M343.333 171.667L343.667 172.333L343.333 171.667M238 172L238 176L239 176L238 172z"/>
<path style="fill:#527379; stroke:none;" d="M283 172L284 173L283 172z"/>
<path style="fill:#323e47; stroke:none;" d="M286 172L287 173L286 172M288 172L287 175L289 174L289 175L290 179L288 172z"/>
<path style="fill:#527379; stroke:none;" d="M290 172L295 182L295 173L293 172L290 172z"/>
<path style="fill:#4b5271; stroke:none;" d="M347 172L348 173L347 172z"/>
<path style="fill:#527379; stroke:none;" d="M357 172L358 173L357 172M285 173L284 175L285 173z"/>
<path style="fill:#323e47; stroke:none;" d="M295 173L295 178L296 178L295 173z"/>
<path style="fill:#4b5271; stroke:none;" d="M344.333 173.667L344.667 174.333L344.333 173.667M348 173L349 174L348 173z"/>
<path style="fill:#040406; stroke:none;" d="M288.333 174.667L288.667 175.333L288.333 174.667z"/>
<path style="fill:#4b5271; stroke:none;" d="M349 174L352 177L349 174z"/>
<path style="fill:#527379; stroke:none;" d="M358 174L359 175L358 174z"/>
<path style="fill:#4b5271; stroke:none;" d="M376 174L379 176L379 175L376 174z"/>
<path style="fill:#527379; stroke:none;" d="M286 175L287 185L282 186L282 187L286 186L286 189L289 188C290.8 194.065 296.676 196.4 302 199L291 182L288 182L290 180L286 175z"/>
<path style="fill:#323e47; stroke:none;" d="M344 175L345 176L344 175z"/>
<path style="fill:#040406; stroke:none;" d="M289 176L290 177L289 176z"/>
<path style="fill:#323e47; stroke:none;" d="M355 176L356 177L355 176z"/>
<path style="fill:#527379; stroke:none;" d="M358 176L364 179L364 178L361 176L358 176z"/>
<path style="fill:#4b5271; stroke:none;" d="M288 177L289 178L288 177M345 177L346 178L345 177M352 177L353 178L352 177z"/>
<path style="fill:#040406; stroke:none;" d="M290.333 178.667L290.667 179.333L290.333 178.667z"/>
<path style="fill:#4b5271; stroke:none;" d="M291 178L292 179L291 178M294 178L294 181L295 181L294 178z"/>
<path style="fill:#323e47; stroke:none;" d="M345 178L345 181L346 181L345 178z"/>
<path style="fill:#4b5271; stroke:none;" d="M353 178L360 187L353 178M287 179L288 180L287 179M289 179L290 180L289 179z"/>
<path style="fill:#323e47; stroke:none;" d="M291 179L294 187L295 187L291 179M357 179L358 180L357 179z"/>
<path style="fill:#4b5271; stroke:none;" d="M292 180L293 181L292 180z"/>
<path style="fill:#323e47; stroke:none;" d="M355 180L356 181L355 180M358 180L359 181L358 180z"/>
<path style="fill:#527379; stroke:none;" d="M360 180L363 184L364 184L366 181L363 182L360 180z"/>
<path style="fill:#4b5271; stroke:none;" d="M379 180L380 181L379 180M288 181L289 183L290 183L291 181L288 181M293 181L295 184L293 181z"/>
<path style="fill:#323e47; stroke:none;" d="M356 181L357 182L356 181M359 181L360 182L359 181z"/>
<path style="fill:#4b5271; stroke:none;" d="M291.333 182.667L291.667 183.333L291.333 182.667M346 182L347 183L346 182z"/>
<path style="fill:#323e47; stroke:none;" d="M357 182L358 183L357 182M360 182L361 183L360 182z"/>
<path style="fill:#4b5271; stroke:none;" d="M288 183L289 184L288 183z"/>
<path style="fill:#323e47; stroke:none;" d="M345 183L346.816 212L344 229C341.682 230.237 329.709 243.743 328 232L325 234L323 231L318 231L337 201L336 201L331 212C324.913 213.039 309.813 234.246 304 227L286 220L301 214L301 213L251 218C252.334 222.845 256.65 226.944 259.862 230.75C262.544 233.929 265.532 236.87 268.925 239.285C292.036 255.737 310.463 230.305 327 216L290 255L320 259C325.47 254.795 332.427 257.881 337.518 251.942C348.548 239.075 347.024 218.646 348.09 203C348.487 197.167 350.022 187.225 345 183M358 183C358.79 187.74 362.998 189.664 365 193C369.025 199.708 371.991 207.779 375 215C376.825 219.379 377.466 225.867 374 225L371 232L362 235L360 231L359 231L359 233L358 233L357 230L356 230L357 232L356 232L348 232L343 262L347 260L348 260L348 262L349 262L358.715 258.625L379 248C380.411 243.435 384.912 241.514 385.16 235.999C385.903 219.532 370.694 192.737 358 183M361 183L362 184L361 183z"/>
<path style="fill:#527379; stroke:none;" d="M365 183L364 185L367 188L366 186L368 187L365 183z"/>
<path style="fill:#4b5271; stroke:none;" d="M266 184L267 185L266 184M290 184L291 185L290 184M292 184L293 185L292 184M345 184L346 185L345 184z"/>
<path style="fill:#323e47; stroke:none;" d="M362 184L363 185L362 184z"/>
<path style="fill:#527379; stroke:none;" d="M369 184L370 185L369 184z"/>
<path style="fill:#4b5271; stroke:none;" d="M293.333 185.667L293.667 186.333L293.333 185.667z"/>
<path style="fill:#323e47; stroke:none;" d="M344 185L345 186L344 185z"/>
<path style="fill:#527379; stroke:none;" d="M345 185L338 201C333.366 200.202 312.627 208.384 312 213L308 212L308 213L319 217L320 217L320 214L321 214L321 217L337 201L326 221L331 220L330 216L331 216L332 221L337 221C337.989 223.696 339.599 224.305 340 221L341 221L344 223C345.228 210.838 350.092 197.022 345 185z"/>
<path style="fill:#323e47; stroke:none;" d="M363 185L364 186L363 185z"/>
<path style="fill:#4b5271; stroke:none;" d="M379 185L380 186L379 185M266 188L269 186L266 188M289 186L290 187L289 186z"/>
<path style="fill:#323e47; stroke:none;" d="M337 186L332 194L336 200L342 193L342 192L337 186z"/>
<path style="fill:#4b5271; stroke:none;" d="M344 186L345 187L344 186z"/>
<path style="fill:#323e47; stroke:none;" d="M364 186L365 187L364 186z"/>
<path style="fill:#527379; stroke:none;" d="M369 186L370 187L369 186z"/>
<path style="fill:#4b5271; stroke:none;" d="M271 187L272 188L271 187M294 187L295 188L294 187M347 187L348 188L347 187z"/>
<path style="fill:#323e47; stroke:none;" d="M365.333 187.667L365.667 188.333L365.333 187.667z"/>
<path style="fill:#4b5271; stroke:none;" d="M272 188L274 191L269 189L272 201C281.106 213.696 291.934 210.116 306 210L306 208C297.523 208.112 296.149 203.852 291 198L295 199L295 198L290 198L272 188z"/>
<path style="fill:#323e47; stroke:none;" d="M295 188L296 189L295 188M343 188L344 189L343 188z"/>
<path style="fill:#4b5271; stroke:none;" d="M360 188L361 189L360 188z"/>
<path style="fill:#527379; stroke:none;" d="M367 188L368 189L367 188z"/>
<path style="fill:#4b5271; stroke:none;" d="M295 189L296 190L295 189M361 189L362 190L361 189z"/>
<path style="fill:#323e47; stroke:none;" d="M366 189L367 190L366 189z"/>
<path style="fill:#527379; stroke:none;" d="M369 189L370 190L369 189z"/>
<path style="fill:#323e47; stroke:none;" d="M296 190L299 193L296 190M342 190L343 191L342 190z"/>
<path style="fill:#4b5271; stroke:none;" d="M346 190L346 193L347 193L346 190M362.333 190.667L362.667 191.333L362.333 190.667z"/>
<path style="fill:#323e47; stroke:none;" d="M367 190L368 191L367 190M280 191L281 192L280 191z"/>
<path style="fill:#040406; stroke:none;" d="M338 191L339 192L338 191z"/>
<path style="fill:#323e47; stroke:none;" d="M282 192L283 193L282 192z"/>
<path style="fill:#4b5271; stroke:none;" d="M297 192L298 193L297 192M348.333 192.667L348.667 193.333L348.333 192.667M364.333 192.667L364.667 193.333L364.333 192.667z"/>
<path style="fill:#527379; stroke:none;" d="M372 192L373 193L372 192z"/>
<path style="fill:#323e47; stroke:none;" d="M284 193L285 194L284 193z"/>
<path style="fill:#4b5271; stroke:none;" d="M298 193L299 194L298 193z"/>
<path style="fill:#040406; stroke:none;" d="M288 194L288 195L292 196L292 195L288 194z"/>
<path style="fill:#323e47; stroke:none;" d="M299 194L300 195L299 194z"/>
<path style="fill:#040406; stroke:none;" d="M213 195L214 203L215 203L213 195z"/>
<path style="fill:#4b5271; stroke:none;" d="M294.667 195.333L295.333 195.667L294.667 195.333z"/>
<path style="fill:#323e47; stroke:none;" d="M300 195L301 196L300 195z"/>
<path style="fill:#4b5271; stroke:none;" d="M365 195L366 196L365 195z"/>
<path style="fill:#040406; stroke:none;" d="M292.667 196.333L293.333 196.667L292.667 196.333z"/>
<path style="fill:#4b5271; stroke:none;" d="M296 196L297 197L296 196M300 196L301 197L300 196z"/>
<path style="fill:#527379; stroke:none;" d="M290 197L291 198L290 197z"/>
<path style="fill:#040406; stroke:none;" d="M295 197L296 198L295 197z"/>
<path style="fill:#4b5271; stroke:none;" d="M298.667 197.333L299.333 197.667L298.667 197.333M301 197L302 198L301 197M366.333 197.667L366.667 198.333L366.333 197.667z"/>
<path style="fill:#527379; stroke:none;" d="M374 197L375 198L374 197M291 198C298.721 210.037 303.844 208.075 317 207L317 205L291 198z"/>
<path style="fill:#040406; stroke:none;" d="M297 198L298 199L297 198z"/>
<path style="fill:#4b5271; stroke:none;" d="M300 198L301 199L300 198z"/>
<path style="fill:#323e47; stroke:none;" d="M302 198L301 201L306 202L306 201L302 198z"/>
<path style="fill:#527379; stroke:none;" d="M290 199L291 200L290 199z"/>
<path style="fill:#4b5271; stroke:none;" d="M296.667 199.333L297.333 199.667L296.667 199.333z"/>
<path style="fill:#040406; stroke:none;" d="M300 199L301 200L300 199z"/>
<path style="fill:#4b5271; stroke:none;" d="M302 199L303 200L302 199M367 199L368 200L367 199M299.667 200.333L300.333 200.667L299.667 200.333z"/>
<path style="fill:#323e47; stroke:none;" d="M334 200L335 201L334 200z"/>
<path style="fill:#4b5271; stroke:none;" d="M337 200L338 201L337 200M368.333 200.667L368.667 201.333L368.333 200.667M383 200L384 201L383 200M302.667 201.333L303.333 201.667L302.667 201.333z"/>
<path style="fill:#323e47; stroke:none;" d="M332 201L333 202L332 201z"/>
<path style="fill:#4b5271; stroke:none;" d="M349.333 201.667L349.667 202.333L349.333 201.667M306 202L307 203L306 202z"/>
<path style="fill:#323e47; stroke:none;" d="M307.667 202.333L308.333 202.667L307.667 202.333M330 202L331 203L330 202z"/>
<path style="fill:#4b5271; stroke:none;" d="M369 202L371 216L368 219L367 219L367 217L366 217L363 221C362.543 224.496 359.894 223.729 357 223L357 226L354 226L352 223L352 227L351 227L351 224L350 224L350 233L357 232L356 230L357 230L358 233L360 231L362 235L371 232L374 225C380.52 224.056 371.999 204.99 369 202M309.667 203.333L310.333 203.667L309.667 203.333z"/>
<path style="fill:#323e47; stroke:none;" d="M311 203L312 204L311 203M328 203L329 204L328 203z"/>
<path style="fill:#4b5271; stroke:none;" d="M334 203L335 204L334 203z"/>
<path style="fill:#323e47; stroke:none;" d="M349 203L349 230L350 230L349 203z"/>
<path style="fill:#4b5271; stroke:none;" d="M382 203L383 210L381 209L381 210L383 211L384 203L382 203M298.667 204.333L299.333 204.667L298.667 204.333M312.667 204.333L313.333 204.667L312.667 204.333z"/>
<path style="fill:#323e47; stroke:none;" d="M314.667 204.333L315.333 204.667L314.667 204.333M325.667 204.333L326.333 204.667L325.667 204.333z"/>
<path style="fill:#4b5271; stroke:none;" d="M327 204L328 205L327 204z"/>
<path style="fill:#040406; stroke:none;" d="M215 205L217 214L218 214L215 205z"/>
<path style="fill:#4b5271; stroke:none;" d="M317 205L317 207L319 207L319 205L317 205z"/>
<path style="fill:#323e47; stroke:none;" d="M319 205L315 209L322 206L319 205M323.667 205.333L324.333 205.667L323.667 205.333z"/>
<path style="fill:#4b5271; stroke:none;" d="M302.667 206.333L303.333 206.667L302.667 206.333M322 206L323 207L322 206M312 207L312 208L315 208L312 207M331 207L332 208L331 207M346 207L346 215L347 215L346 207M308 208L308 209L311 209L308 208z"/>
<path style="fill:#323e47; stroke:none;" d="M312 210L306 209L306 210C309.446 210.559 311.855 211 314 208L312 210z"/>
<path style="fill:#040406; stroke:none;" d="M314 208L315 209L314 208z"/>
<path style="fill:#4b5271; stroke:none;" d="M317.667 208.333L318.333 208.667L317.667 208.333M330 208L331 209L330 208M333 208L334 209L333 208z"/>
<path style="fill:#040406; stroke:none;" d="M310.667 209.333L311.333 209.667L310.667 209.333z"/>
<path style="fill:#4b5271; stroke:none;" d="M314.667 209.333L315.333 209.667L314.667 209.333z"/>
<path style="fill:#040406; stroke:none;" d="M331 209L332 210L331 209z"/>
<path style="fill:#4b5271; stroke:none;" d="M312 210L313 211L312 210M317 210L318 211L317 210M329 210L330 211L329 210z"/>
<path style="fill:#040406; stroke:none;" d="M330.333 210.667L330.667 211.333L330.333 210.667z"/>
<path style="fill:#4b5271; stroke:none;" d="M220.333 211.667L220.667 212.333L220.333 211.667z"/>
<path style="fill:#323e47; stroke:none;" d="M306.667 211.333L307.333 211.667L306.667 211.333z"/>
<path style="fill:#4b5271; stroke:none;" d="M308 211L308 212L312 213L308 211M328 211L329 212L328 211z"/>
<path style="fill:#323e47; stroke:none;" d="M302 212L302 213L305 213L302 212z"/>
<path style="fill:#4b5271; stroke:none;" d="M286 220L304 227C305.888 235.633 323.893 217.321 326 214C323.441 214.741 321.446 217.346 321 214L320 214L320 217C312.698 210.159 291.739 211.577 286 220M312 213L312 214L316 213L312 213M319 212L320 213L319 212M327 212L328 213L327 212z"/>
<path style="fill:#040406; stroke:none;" d="M329 212L327 216L328 216L329 212z"/>
<path style="fill:#4b5271; stroke:none;" d="M326 213L327 214L326 213M330 213L331 214L330 213z"/>
<path style="fill:#040406; stroke:none;" d="M218.333 215.667L218.667 216.333L218.333 215.667z"/>
<path style="fill:#4b5271; stroke:none;" d="M221 215L222 216L221 215M329 215L330 216L329 215M216 216L217 217L216 216M222 216L223 217L222 216M328.333 216.667L328.667 217.333L328.333 216.667M330 216L331 220L325 220L318 231L323 231L325 234L328 232C329.376 243.443 341.192 231.902 344 229L341 221L340 221L339 224L337 221L332 221L330 216M345.333 216.667L345.667 217.333L345.333 216.667z"/>
<path style="fill:#323e47; stroke:none;" d="M248.667 217.333L249.333 217.667L248.667 217.333z"/>
<path style="fill:#040406; stroke:none;" d="M219 218L220 222L221 222L219 218z"/>
<path style="fill:#4b5271; stroke:none;" d="M327 218L328 219L327 218M329 218L330 219L329 218M217 219L218 220L217 219M223.333 219.667L223.667 220.333L223.333 219.667M326 219L327 220L326 219M364 219L365 220L364 219M344 220L345 223L344 220M199 221L200 226L201 226L199 221M218 221C219.216 226.674 221.896 233.879 227 237L218 221M338 221L339 222L338 221M353 221L354 222L353 221M356 221L357 222L356 221M224 222L226 225L224 222z"/>
<path style="fill:#527379; stroke:none;" d="M325 222L327 224L325 222M333 222L334 223L333 222z"/>
<path style="fill:#4b5271; stroke:none;" d="M362 222L363 223L362 222z"/>
<path style="fill:#040406; stroke:none;" d="M221 223L224 231L225 231L221 223z"/>
<path style="fill:#4b5271; stroke:none;" d="M355 223L356 224L355 223z"/>
<path style="fill:#323e47; stroke:none;" d="M438 223L439 224L438 223z"/>
<path style="fill:#527379; stroke:none;" d="M341 224L342 225L341 224z"/>
<path style="fill:#323e47; stroke:none;" d="M221.333 225.667L221.667 226.333L221.333 225.667z"/>
<path style="fill:#4b5271; stroke:none;" d="M297 225L298 226L297 225z"/>
<path style="fill:#527379; stroke:none;" d="M358 225L359 226L358 225z"/>
<path style="fill:#4b5271; stroke:none;" d="M226.333 226.667L226.667 227.333L226.333 226.667z"/>
<path style="fill:#527379; stroke:none;" d="M341 226L342 227L341 226z"/>
<path style="fill:#4b5271; stroke:none;" d="M201 227C202.572 233.62 206.001 243.331 212 247C212.39 251.663 214.981 254.716 219 257L221 261C218.536 251.164 207.55 234.905 201 227z"/>
<path style="fill:#323e47; stroke:none;" d="M222.333 227.667L222.667 228.333L222.333 227.667z"/>
<path style="fill:#4b5271; stroke:none;" d="M375 227L376 228L375 227z"/>
<path style="fill:#323e47; stroke:none;" d="M323 228L324 229L323 228M223.333 229.667L223.667 230.333L223.333 229.667z"/>
<path style="fill:#4b5271; stroke:none;" d="M227 229L236 241L227 229z"/>
<path style="fill:#323e47; stroke:none;" d="M229 229L231 234L232 234L229 229z"/>
<path style="fill:#040406; stroke:none;" d="M225 232L226 233L225 232z"/>
<path style="fill:#4b5271; stroke:none;" d="M321 232L322 233L321 232M369 232L370 233L369 232z"/>
<path style="fill:#323e47; stroke:none;" d="M329 233L330 234L329 233z"/>
<path style="fill:#040406; stroke:none;" d="M227 234C233.071 254.487 261.74 276.188 282 281L282 280C257.033 270.928 243.844 252.919 227 234z"/>
<path style="fill:#323e47; stroke:none;" d="M232.333 234.667L232.667 235.333L232.333 234.667z"/>
<path style="fill:#4b5271; stroke:none;" d="M322 234L323 235L322 234M324 234L325 235L324 234M326 234L327 235L326 234M358 234L358 235L361 235L361 234L358 234M364 234L365 235L364 234M367 234L368 235L367 234z"/>
<path style="fill:#323e47; stroke:none;" d="M227 236L229 239L227 236M233 236L236 240L233 236z"/>
<path style="fill:#4b5271; stroke:none;" d="M327 236L328 237L327 236M330 236L331 237L330 236z"/>
<path style="fill:#527379; stroke:none;" d="M226 237L227 238L226 237z"/>
<path style="fill:#4b5271; stroke:none;" d="M226 238L233 246L235 250L231 245L226 238M334 238L335 239L334 238z"/>
<path style="fill:#323e47; stroke:none;" d="M229 240L230 241L229 240M230 241L231 242L230 241M231 242L232 243L231 242z"/>
<path style="fill:#4b5271; stroke:none;" d="M236 242L237 243L236 242M237 243L250 258L237 243z"/>
<path style="fill:#527379; stroke:none;" d="M231 244L232 245L231 244z"/>
<path style="fill:#323e47; stroke:none;" d="M232 244L233 245L232 244M239 244L240 245L239 244M233 245L234 246L233 245M240 245L242 248L240 245z"/>
<path style="fill:#527379; stroke:none;" d="M232 246L233 247L232 246z"/>
<path style="fill:#323e47; stroke:none;" d="M234 246L235 247L234 246z"/>
<path style="fill:#527379; stroke:none;" d="M211 247L212 248L211 247M234 248L238 253L234 248z"/>
<path style="fill:#323e47; stroke:none;" d="M235 248L236 249L235 248M242 248L243 249L242 248M236 249L237 250L236 249M243 249L244 250L243 249M237 250L243 256L237 250M244 250L245 251L244 250z"/>
<path style="fill:#4b5271; stroke:none;" d="M237 251L238 252L237 251z"/>
<path style="fill:#323e47; stroke:none;" d="M245 251L246 252L245 251z"/>
<path style="fill:#040406; stroke:none;" d="M400.333 251.667L400.667 252.333L400.333 251.667z"/>
<path style="fill:#4b5271; stroke:none;" d="M236 252L237 253L236 252M238 252L237 253L250 264L238 252z"/>
<path style="fill:#323e47; stroke:none;" d="M246 252L247 253L246 252z"/>
<path style="fill:#040406; stroke:none;" d="M295 252L296 253L295 252z"/>
<path style="fill:#323e47; stroke:none;" d="M247 253L248 254L247 253z"/>
<path style="fill:#527379; stroke:none;" d="M239 254L248 263L239 254z"/>
<path style="fill:#323e47; stroke:none;" d="M248 254L248 256L250 256L248 254z"/>
<path style="fill:#040406; stroke:none;" d="M293 254L294 255L293 254M395 257L399 254L395 257z"/>
<path style="fill:#323e47; stroke:none;" d="M288 255L289 256L288 255M366 255L367 256L366 255z"/>
<path style="fill:#527379; stroke:none;" d="M217 256L218 257L217 256M218 257L219 258L218 257z"/>
<path style="fill:#323e47; stroke:none;" d="M330 257L331 258L330 257M361 257L362 258L361 257z"/>
<path style="fill:#527379; stroke:none;" d="M219 258L220 259L219 258z"/>
<path style="fill:#323e47; stroke:none;" d="M245 258L246 259L245 258z"/>
<path style="fill:#4b5271; stroke:none;" d="M251 258L263 267L263 266L251 258z"/>
<path style="fill:#323e47; stroke:none;" d="M252 258L253 259L252 258z"/>
<path style="fill:#040406; stroke:none;" d="M386 264L386 265L395 259L386 264z"/>
<path style="fill:#527379; stroke:none;" d="M220 259L221 260L220 259z"/>
<path style="fill:#323e47; stroke:none;" d="M246 259L247 260L246 259M253 259L256 261L253 259z"/>
<path style="fill:#527379; stroke:none;" d="M221 260L224 264L221 260z"/>
<path style="fill:#323e47; stroke:none;" d="M247 260L248 261L247 260z"/>
<path style="fill:#4b5271; stroke:none;" d="M222 261L223 262L222 261z"/>
<path style="fill:#323e47; stroke:none;" d="M248 261L249 262L248 261M256 261L260 264L256 261z"/>
<path style="fill:#4b5271; stroke:none;" d="M223 262L224 263L223 262z"/>
<path style="fill:#323e47; stroke:none;" d="M249 262L250 263L249 262z"/>
<path style="fill:#4b5271; stroke:none;" d="M222 263L223 264L222 263z"/>
<path style="fill:#527379; stroke:none;" d="M248 263L249 264L248 263z"/>
<path style="fill:#323e47; stroke:none;" d="M250 263L252 265L250 263z"/>
<path style="fill:#527379; stroke:none;" d="M224 264L238 278L224 264z"/>
<path style="fill:#4b5271; stroke:none;" d="M225 264L226 265L225 264z"/>
<path style="fill:#527379; stroke:none;" d="M249 264L249 265L254 268L249 264z"/>
<path style="fill:#323e47; stroke:none;" d="M260 264L261 265L260 264z"/>
<path style="fill:#4b5271; stroke:none;" d="M224 265L225 266L224 265M226 265L227 266L226 265M250 265L251 266L250 265M252 265L253 269L260 273L261 272L261 271L258 271L255 269L252 265z"/>
<path style="fill:#323e47; stroke:none;" d="M253 265L254 266L253 265M261.667 265.333L262.333 265.667L261.667 265.333z"/>
<path style="fill:#4b5271; stroke:none;" d="M225 266L226 267L225 266M227 266L228 267L227 266M251 266L252 267L251 266z"/>
<path style="fill:#323e47; stroke:none;" d="M254 266L255 267L254 266z"/>
<path style="fill:#040406; stroke:none;" d="M384 266L385 267L384 266z"/>
<path style="fill:#4b5271; stroke:none;" d="M226 267L227 268L226 267M252 267L253 268L252 267z"/>
<path style="fill:#323e47; stroke:none;" d="M255 267L256 268L255 267z"/>
<path style="fill:#4b5271; stroke:none;" d="M263 267L264 268L263 267z"/>
<path style="fill:#040406; stroke:none;" d="M381 269L384 267L381 269z"/>
<path style="fill:#4b5271; stroke:none;" d="M227 268L228 269L227 268z"/>
<path style="fill:#527379; stroke:none;" d="M255 268L256 269L255 268z"/>
<path style="fill:#323e47; stroke:none;" d="M257 268L258 269L257 268z"/>
<path style="fill:#4b5271; stroke:none;" d="M264 268L265 269L264 268z"/>
<path style="fill:#527379; stroke:none;" d="M256 269L257 270L256 269z"/>
<path style="fill:#323e47; stroke:none;" d="M258 269L259 270L258 269z"/>
<path style="fill:#4b5271; stroke:none;" d="M265.667 269.333L266.333 269.667L265.667 269.333z"/>
<path style="fill:#040406; stroke:none;" d="M379.667 269.333L380.333 269.667L379.667 269.333z"/>
<path style="fill:#527379; stroke:none;" d="M258 270L259 271L258 270z"/>
<path style="fill:#323e47; stroke:none;" d="M260 270L261 271L260 270z"/>
<path style="fill:#4b5271; stroke:none;" d="M268 270L270 272L268 270z"/>
<path style="fill:#040406; stroke:none;" d="M378 270L379 271L378 270z"/>
<path style="fill:#4b5271; stroke:none;" d="M230 271L231 272L230 271z"/>
<path style="fill:#527379; stroke:none;" d="M259 271L260 272L259 271z"/>
<path style="fill:#323e47; stroke:none;" d="M261 271L262 272L261 271z"/>
<path style="fill:#040406; stroke:none;" d="M376.667 271.333L377.333 271.667L376.667 271.333z"/>
<path style="fill:#4b5271; stroke:none;" d="M233 272L234 273L233 272z"/>
<path style="fill:#527379; stroke:none;" d="M260.667 272.333L261.333 272.667L260.667 272.333z"/>
<path style="fill:#4b5271; stroke:none;" d="M262 272L261 273C266.098 278.153 274.898 281.777 282 283L282 282L264 275L262 272z"/>
<path style="fill:#323e47; stroke:none;" d="M263 272L264 273L263 272z"/>
<path style="fill:#4b5271; stroke:none;" d="M271 272L271 273L278 276L278 275L271 272z"/>
<path style="fill:#323e47; stroke:none;" d="M273 272L273 273L277 274L277 273L273 272z"/>
<path style="fill:#040406; stroke:none;" d="M374.667 272.333L375.333 272.667L374.667 272.333z"/>
<path style="fill:#4b5271; stroke:none;" d="M234 273L235 274L234 273z"/>
<path style="fill:#323e47; stroke:none;" d="M264.667 273.333L265.333 273.667L264.667 273.333z"/>
<path style="fill:#040406; stroke:none;" d="M371 275L374 273L371 275z"/>
<path style="fill:#4b5271; stroke:none;" d="M235 274L236 275L235 274z"/>
<path style="fill:#527379; stroke:none;" d="M264 274L265 275L264 274z"/>
<path style="fill:#323e47; stroke:none;" d="M266 274L267 275L266 274z"/>
<path style="fill:#4b5271; stroke:none;" d="M234 275L235 276L234 275M236 275L237 276L236 275z"/>
<path style="fill:#323e47; stroke:none;" d="M268 275L269 276L268 275z"/>
<path style="fill:#040406; stroke:none;" d="M369.667 275.333L370.333 275.667L369.667 275.333z"/>
<path style="fill:#4b5271; stroke:none;" d="M235 276L236 277L235 276M237 276L238 277L237 276z"/>
<path style="fill:#323e47; stroke:none;" d="M270 276L271 277L270 276z"/>
<path style="fill:#4b5271; stroke:none;" d="M280 276L281 277L280 276z"/>
<path style="fill:#040406; stroke:none;" d="M367.667 276.333L368.333 276.667L367.667 276.333z"/>
<path style="fill:#4b5271; stroke:none;" d="M236 277L237 278L236 277M237 278L237 279L242 280L241 282L256 290L244 283C242.328 279.614 240.806 278.167 237 278z"/>
<path style="fill:#323e47; stroke:none;" d="M272 277L273 278L272 277z"/>
<path style="fill:#040406; stroke:none;" d="M362 278L362 279L367 278L362 278z"/>
<path style="fill:#323e47; stroke:none;" d="M273.667 278.333L274.333 278.667L273.667 278.333z"/>
<path style="fill:#527379; stroke:none;" d="M239 279L242 281L239 279z"/>
<path style="fill:#323e47; stroke:none;" d="M276 279L277 280L276 279z"/>
<path style="fill:#040406; stroke:none;" d="M360.667 279.333L361.333 279.667L360.667 279.333z"/>
<path style="fill:#323e47; stroke:none;" d="M278.667 280.333L279.333 280.667L278.667 280.333z"/>
<path style="fill:#040406; stroke:none;" d="M358.667 280.333L359.333 280.667L358.667 280.333z"/>
<path style="fill:#527379; stroke:none;" d="M242 281L243 282L242 281z"/>
<path style="fill:#040406; stroke:none;" d="M283 281L283 282L286 282L283 281M355 281L355 282L358 282L355 281z"/>
<path style="fill:#527379; stroke:none;" d="M244 282L245 283L244 282z"/>
<path style="fill:#040406; stroke:none;" d="M286.667 282.333L287.333 282.667L286.667 282.333M352 282L352 283L355 283L352 282z"/>
<path style="fill:#527379; stroke:none;" d="M245 283L246 284L245 283z"/>
<path style="fill:#4b5271; stroke:none;" d="M282 283L282 284L285 284L282 283z"/>
<path style="fill:#040406; stroke:none;" d="M288 283L288 284L292 284L288 283M348 283L348 284L352 284L348 283z"/>
<path style="fill:#4b5271; stroke:none;" d="M285 284L285 285L288 285L285 284z"/>
<path style="fill:#040406; stroke:none;" d="M292 284L292 285L296 285L292 284M344 284L344 285L348 285L344 284z"/>
<path style="fill:#4b5271; stroke:none;" d="M288 285L288 286L291 286L288 285z"/>
<path style="fill:#040406; stroke:none;" d="M296 285L296 286L301 286L296 285M339 285L339 286L344 286L339 285z"/>
<path style="fill:#4b5271; stroke:none;" d="M292 286L292 287L295 287L292 286z"/>
<path style="fill:#040406; stroke:none;" d="M301 286L301 287L308 287L301 286M332 286L332 287L339 287L332 286M308 287L308 288L332 288L308 287z"/>
<path style="fill:#527379; stroke:none;" d="M255.667 290.333L256.333 290.667L255.667 290.333z"/>
<path style="fill:#4b5271; stroke:none;" d="M257 290L256 291L260 294L261 294L257 290z"/>
<path style="fill:#527379; stroke:none;" d="M258 291L259 292L258 291M259 292L260 293L259 292M261 293L262 294L261 293z"/>
<path style="fill:#4b5271; stroke:none;" d="M262 293C265.507 298.355 273.903 300.468 280 301L280 300L262 293M280 301L280 302L283 302L280 301M283 302L283 303L286 303L283 302M286 303L286 304L289 304L286 303M291 304L291 305L294 305L291 304M296.667 305.333L297.333 305.667L296.667 305.333z"/>
</svg>
